<svg width="16" height="16" viewBox="0 0 16 16" fill="none" xmlns="http://www.w3.org/2000/svg">
<path fill-rule="evenodd" clip-rule="evenodd" d="M3.28598 12.7143C2.66087 12.0892 2.30969 11.2414 2.30969 10.3573C2.30969 9.47327 2.66087 8.62543 3.28598 8.00031L5.17131 6.11498L9.88531 10.8283L7.99998 12.7156C7.37486 13.3408 6.52702 13.6919 5.64298 13.6919C4.75894 13.6919 3.9111 13.3408 3.28598 12.7156V12.7143ZM10.8286 9.88564L12.7133 8.00031C13.3254 7.3726 13.6655 6.52901 13.66 5.65229C13.6546 4.77557 13.3039 3.93631 12.684 3.31632C12.0641 2.69633 11.2249 2.34553 10.3481 2.33991C9.47141 2.33429 8.62778 2.67431 7.99998 3.28631L6.11465 5.17164L10.8286 9.88564Z" fill="#A9ACB2"/>
</svg>
