<svg width="16" height="16" viewBox="0 0 16 16" fill="none" xmlns="http://www.w3.org/2000/svg">
<path d="M12 6.00488C13.1046 6.00488 14 6.90031 14 8.00488C14 9.10945 13.1046 10.0049 12 10.0049H4C2.89543 10.0049 2 9.10945 2 8.00488C2 6.90031 2.89543 6.00488 4 6.00488H12Z" fill="#3D84FF"/>
<path d="M10 12.0049C10 13.1095 9.10457 14.0049 8 14.0049C6.89543 14.0049 6 13.1095 6 12.0049L6 4.00488C6 2.90031 6.89543 2.00488 8 2.00488C9.10457 2.00488 10 2.90031 10 4.00488L10 12.0049Z" fill="#3D84FF"/>
</svg>
