<svg width="96" height="96" viewBox="0 0 96 96" fill="none" xmlns="http://www.w3.org/2000/svg">
<path d="M48.3164 56.3672C49.6368 56.3672 50.7667 57.3158 50.9951 58.6162L51.0029 58.6631C51.0103 58.7023 51.0226 58.765 51.0391 58.8477C51.0721 59.0133 51.1236 59.2599 51.1943 59.5674C51.3366 60.1856 51.5538 61.0361 51.8506 61.9619C52.485 63.9405 53.337 65.7823 54.2773 66.7227C55.2178 67.6631 57.0603 68.515 59.0391 69.1494C59.9647 69.4462 60.8145 69.6634 61.4326 69.8057C61.7401 69.8764 61.9867 69.9279 62.1523 69.9609C62.2351 69.9775 62.2977 69.9897 62.3369 69.9971C62.3563 70.0007 62.3702 70.0025 62.3779 70.0039C62.3794 70.0042 62.3808 70.0047 62.3818 70.0049C63.6828 70.2328 64.6328 71.3628 64.6328 72.6836C64.6328 74.0044 63.6829 75.1344 62.3818 75.3623C62.3808 75.3626 62.3794 75.363 62.3779 75.3633C62.3702 75.3647 62.3563 75.3665 62.3369 75.3701C62.2977 75.3774 62.2351 75.3897 62.1523 75.4062C61.9867 75.4393 61.7401 75.4908 61.4326 75.5615C60.8145 75.7038 59.9647 75.921 59.0391 76.2178C57.0603 76.8522 55.2178 77.7041 54.2773 78.6445C53.3369 79.5849 52.485 81.4275 51.8506 83.4062C51.5538 84.3319 51.3366 85.1816 51.1943 85.7998C51.1236 86.1073 51.0721 86.3539 51.0391 86.5195C51.0225 86.6022 51.0103 86.6649 51.0029 86.7041C50.9993 86.7234 50.9975 86.7373 50.9961 86.7451C50.9958 86.7466 50.9953 86.748 50.9951 86.749C50.7672 88.05 49.6372 89 48.3164 89C46.9956 89 45.8656 88.05 45.6377 86.749C45.6374 86.748 45.637 86.7465 45.6367 86.7451C45.6353 86.7373 45.6335 86.7234 45.6299 86.7041C45.6226 86.6649 45.6103 86.6022 45.5938 86.5195C45.5607 86.3539 45.5092 86.1073 45.4385 85.7998C45.2962 85.1816 45.079 84.3319 44.7822 83.4062C44.1478 81.4275 43.2959 79.5849 42.3555 78.6445C41.415 77.7041 39.5725 76.8522 37.5938 76.2178C36.6681 75.921 35.8184 75.7038 35.2002 75.5615C34.8927 75.4908 34.6461 75.4393 34.4805 75.4062C34.3977 75.3897 34.3351 75.3774 34.2959 75.3701C34.2765 75.3665 34.2626 75.3647 34.2549 75.3633C34.2534 75.363 34.252 75.3626 34.251 75.3623H34.25C32.9491 75.1343 32 74.0044 32 72.6836C32 71.3628 32.95 70.2328 34.251 70.0049C34.252 70.0047 34.2534 70.0042 34.2549 70.0039C34.2626 70.0025 34.2765 70.0007 34.2959 69.9971C34.3351 69.9897 34.3977 69.9775 34.4805 69.9609C34.6461 69.9279 34.8927 69.8764 35.2002 69.8057C35.8184 69.6634 36.6681 69.4462 37.5938 69.1494C39.5725 68.515 41.4151 67.6631 42.3555 66.7227C43.2958 65.7823 44.1478 63.9405 44.7822 61.9619C45.079 61.0361 45.2962 60.1856 45.4385 59.5674C45.5092 59.2599 45.5607 59.0133 45.5938 58.8477C45.6103 58.765 45.6226 58.7023 45.6299 58.6631L45.6377 58.6162C45.8661 57.3158 46.996 56.3672 48.3164 56.3672ZM48.3164 67.6123C47.7423 68.6873 47.0444 69.7251 46.2012 70.5684C45.358 71.4115 44.3209 72.1095 43.2461 72.6836C44.3209 73.2577 45.358 73.9557 46.2012 74.7988C47.0443 75.642 47.7423 76.6791 48.3164 77.7539C48.8905 76.6791 49.5885 75.642 50.4316 74.7988C51.2749 73.9556 52.3127 73.2577 53.3877 72.6836C52.3127 72.1095 51.2749 71.4116 50.4316 70.5684C49.5884 69.7251 48.8905 68.6873 48.3164 67.6123ZM61.4717 18.7139C62.9606 18.7139 64.1678 19.9212 64.168 21.4102V58.1455C64.1678 59.6344 62.9606 60.8408 61.4717 60.8408C59.9828 60.8408 58.7756 59.6344 58.7754 58.1455V21.4102C58.7755 19.9213 59.9828 18.7139 61.4717 18.7139ZM34.6963 13.0664C36.1853 13.0665 37.3926 14.2737 37.3926 15.7627V52.4971C37.3926 53.9861 36.1853 55.1933 34.6963 55.1934C33.2073 55.1934 32 53.9861 32 52.4971V15.7627C32 14.2737 33.2073 13.0664 34.6963 13.0664ZM48.084 7C49.573 7.00001 50.7803 8.20727 50.7803 9.69629V45.4199C50.7802 46.9089 49.573 48.1162 48.084 48.1162C46.595 48.1162 45.3878 46.9089 45.3877 45.4199V9.69629C45.3877 8.20726 46.595 7 48.084 7Z" fill="url(#paint0_linear_302_409)"/>
<defs>
<linearGradient id="paint0_linear_302_409" x1="63.3275" y1="21.7083" x2="16.1243" y2="57.9165" gradientUnits="userSpaceOnUse">
<stop stop-color="#0C58FF"/>
<stop offset="1" stop-color="#3FB6FF"/>
</linearGradient>
</defs>
</svg>
