<svg width="24" height="20" viewBox="0 0 24 20" fill="none" xmlns="http://www.w3.org/2000/svg">
<path d="M19.2002 3.5293H22C23.1045 3.5293 23.9999 4.42478 24 5.5293V18C24 19.1046 23.1046 20 22 20H2C0.895431 20 0 19.1046 0 18V5.5293C6.25466e-05 4.42478 0.895469 3.5293 2 3.5293H4.7998L7.2002 0H16.7998L19.2002 3.5293ZM12 7.05957C9.34912 7.05967 7.2002 9.1667 7.2002 11.7656L7.20605 12.0078C7.3308 14.4136 9.29893 16.3428 11.7529 16.4648L12 16.4717C14.5677 16.4714 16.6651 14.4938 16.7939 12.0078L16.7998 11.7656C16.7998 9.1668 14.6507 7.05983 12 7.05957ZM12 8.55957C13.8504 8.55983 15.2998 10.0231 15.2998 11.7656C15.2994 13.5079 13.8502 14.9714 12 14.9717C10.1496 14.9716 8.70056 13.508 8.7002 11.7656C8.7002 10.023 10.1494 8.55967 12 8.55957ZM10.8008 3.36816C10.3866 3.36816 10.0508 3.70395 10.0508 4.11816C10.051 4.53215 10.3867 4.86816 10.8008 4.86816H13.2012L13.2773 4.86426C13.6552 4.82572 13.9509 4.50616 13.9512 4.11816C13.9512 3.72998 13.6553 3.41067 13.2773 3.37207L13.2012 3.36816H10.8008Z" fill="#A9ACB2"/>
</svg>
