<svg width="96" height="96" viewBox="0 0 96 96" fill="none" xmlns="http://www.w3.org/2000/svg">
<path d="M79.041 24.1396C80.8205 24.1396 82.2636 25.5818 82.2637 27.3613V62.8057C82.2636 68.9643 79.5633 74.9833 75.7344 79.8516C71.8975 84.7298 66.7013 88.7478 61.2422 90.7949C59.576 91.4196 57.7186 90.5753 57.0938 88.9092C56.4689 87.243 57.3134 85.3857 58.9795 84.7607C63.187 83.1829 67.4572 79.9506 70.6689 75.8672C73.8883 71.774 75.8193 67.119 75.8193 62.8057V27.3613C75.8194 25.582 77.2617 24.1399 79.041 24.1396ZM48.4307 4C50.2102 4.00007 51.6523 5.44313 51.6523 7.22266V42.3643C51.6537 42.3708 51.6549 42.3779 51.6562 42.3848C51.6954 42.581 51.757 42.8732 51.8408 43.2373C52.0094 43.9698 52.2665 44.9774 52.6182 46.0742C53.3699 48.4187 54.3799 50.6006 55.4941 51.7148C56.6084 52.8291 58.7903 53.8391 61.1348 54.5908C61.1962 54.6105 61.2585 54.6274 61.3193 54.6465V14.4727C61.3193 12.6931 62.7624 11.25 64.542 11.25C66.3215 11.2501 67.7637 12.6931 67.7637 14.4727V58.375C67.7637 58.4486 67.7597 58.5214 67.7549 58.5938C67.7584 58.655 67.7637 58.7164 67.7637 58.7783C67.7637 60.3434 66.6383 61.6821 65.0967 61.9521C65.0954 61.9524 65.0936 61.9528 65.0918 61.9531C65.0826 61.9548 65.0659 61.9576 65.043 61.9619C64.9965 61.9706 64.922 61.9854 64.8242 62.0049C64.628 62.0441 64.3358 62.1047 63.9717 62.1885C63.2391 62.3571 62.2316 62.6142 61.1348 62.9658C58.7904 63.7175 56.6084 64.7276 55.4941 65.8418C54.3798 66.9561 53.3699 69.1387 52.6182 71.4834C52.2665 72.5803 52.0094 73.5878 51.8408 74.3203C51.757 74.6845 51.6954 74.9767 51.6562 75.1729C51.6367 75.2708 51.6229 75.3451 51.6143 75.3916C51.61 75.4147 51.6071 75.4313 51.6055 75.4404L51.6045 75.4453C51.5554 75.7255 51.4701 75.9918 51.3555 76.2402C50.6025 80.5194 48.4562 84.4174 45.4346 87.0244C41.5055 90.4143 35.9407 91.6644 30.5693 88.3799C18.3306 80.8958 15 66.4842 15 58.375V41.8613C15.0001 40.0818 16.4431 38.6396 18.2227 38.6396C20.002 38.6399 21.4442 40.082 21.4443 41.8613V58.375C21.4443 65.4025 24.4253 77.0686 33.9316 82.8818C36.5306 84.4709 39.0567 84.0149 41.2246 82.1445C43.1618 80.4732 44.6632 77.7255 45.0869 74.6328C45.0656 74.536 45.046 74.4311 45.0205 74.3203C44.8519 73.5878 44.5948 72.5803 44.2432 71.4834C43.4914 69.1387 42.4815 66.9561 41.3672 65.8418C40.2529 64.7275 38.0702 63.7176 35.7256 62.9658C34.6287 62.6142 33.6212 62.357 32.8887 62.1885C32.5245 62.1047 32.2323 62.0441 32.0361 62.0049C31.9381 61.9853 31.8639 61.9706 31.8174 61.9619C31.7944 61.9576 31.7777 61.9548 31.7686 61.9531C31.7668 61.9527 31.7649 61.9524 31.7637 61.9521V61.9531C30.2221 61.683 29.0977 60.3433 29.0977 58.7783C29.0978 57.2135 30.2224 55.8747 31.7637 55.6045C31.7649 55.6043 31.7668 55.6038 31.7686 55.6035C31.7777 55.6019 31.7943 55.599 31.8174 55.5947C31.8638 55.586 31.9382 55.5723 32.0361 55.5527C32.2323 55.5136 32.5244 55.452 32.8887 55.3682C33.6212 55.1996 34.6287 54.9425 35.7256 54.5908C38.0702 53.8391 40.2529 52.8291 41.3672 51.7148C42.4813 50.6005 43.4915 48.4186 44.2432 46.0742C44.5948 44.9774 44.8519 43.9698 45.0205 43.2373C45.1043 42.8732 45.1649 42.581 45.2041 42.3848C45.2055 42.378 45.2067 42.3708 45.208 42.3643V7.22266C45.208 5.44308 46.6511 4 48.4307 4ZM48.6299 53.1318C48.564 53.1359 48.4976 53.1387 48.4307 53.1387C48.3631 53.1387 48.296 53.1359 48.2295 53.1318C47.5886 54.2749 46.8277 55.3686 45.9238 56.2725C44.9249 57.2713 43.6962 58.0982 42.4229 58.7783C43.6963 59.4585 44.9248 60.2861 45.9238 61.2852C46.9228 62.2842 47.7504 63.5126 48.4307 64.7861C49.1108 63.5128 49.9377 62.2841 50.9365 61.2852C51.9357 60.286 53.1657 59.4586 54.4395 58.7783C53.1657 58.098 51.9357 57.2717 50.9365 56.2725C50.0325 55.3684 49.2709 54.2751 48.6299 53.1318ZM32.7227 11.25C34.502 11.2502 35.9443 12.6932 35.9443 14.4727V46.6943C35.9443 48.4737 34.502 49.9158 32.7227 49.916C30.9431 49.916 29.5001 48.4739 29.5 46.6943V14.4727C29.5 12.6931 30.9431 11.25 32.7227 11.25Z" fill="#E2E4E8"/>
</svg>
