<svg width="72" height="72" viewBox="0 0 72 72" fill="none" xmlns="http://www.w3.org/2000/svg">
<path d="M59.2812 18.1045C60.6159 18.1045 61.6982 19.1868 61.6982 20.5215V47.1045C61.6981 51.7234 59.6724 56.2375 56.8008 59.8887C53.9232 63.5473 50.0259 66.5604 45.9316 68.0957C44.682 68.5642 43.2889 67.9313 42.8203 66.6816C42.3518 65.432 42.9857 64.0389 44.2354 63.5703C47.3908 62.3869 50.5933 59.9628 53.002 56.9004C55.4164 53.8306 56.8641 50.3394 56.8643 47.1045V20.5215C56.8643 19.1868 57.9466 18.1045 59.2812 18.1045ZM36.3232 3C37.6578 3.00017 38.7392 4.08243 38.7393 5.41699V31.7725C38.7403 31.7776 38.7411 31.7828 38.7422 31.7881C38.7716 31.9353 38.818 32.1545 38.8809 32.4277C39.0073 32.9772 39.2001 33.733 39.4639 34.5557C40.0276 36.3138 40.7846 37.9504 41.6201 38.7861C42.4558 39.6218 44.0931 40.3796 45.8516 40.9434C45.8975 40.9581 45.9437 40.9711 45.9893 40.9854V10.8545C45.9893 9.51981 47.0716 8.4375 48.4062 8.4375C49.7409 8.4375 50.8232 9.51981 50.8232 10.8545V43.7812C50.8232 43.8285 50.8181 43.8753 50.8154 43.9219C50.819 43.9755 50.8232 44.0296 50.8232 44.084C50.8232 45.2577 49.9784 46.2613 48.8223 46.4639C48.8214 46.4641 48.8205 46.4646 48.8193 46.4648C48.8125 46.4661 48.7996 46.4684 48.7822 46.4717C48.7473 46.4782 48.6915 46.4893 48.6182 46.5039C48.471 46.5333 48.2515 46.5788 47.9785 46.6416C47.4292 46.768 46.674 46.9609 45.8516 47.2246C44.0931 47.7884 42.4558 48.5461 41.6201 49.3818C40.7846 50.2176 40.0276 51.8541 39.4639 53.6123C39.2001 54.435 39.0073 55.1908 38.8809 55.7402C38.818 56.0134 38.7716 56.2327 38.7422 56.3799C38.7275 56.4532 38.7174 56.5091 38.7109 56.5439C38.7077 56.5611 38.7053 56.5732 38.7041 56.5801L38.7031 56.584C38.6665 56.7929 38.6028 56.9914 38.5176 57.1768C37.9535 60.3876 36.3432 63.3126 34.0762 65.2686C31.1294 67.8109 26.9562 68.7483 22.9277 66.2852C13.7486 60.6721 11.25 49.8632 11.25 43.7812V31.3965C11.25 30.0618 12.3323 28.9795 13.667 28.9795C15.0015 28.9797 16.083 30.0619 16.083 31.3965V43.7812C16.083 49.0518 18.3187 57.8011 25.4482 62.1611C27.3975 63.3531 29.292 63.0112 30.918 61.6084C32.3729 60.3531 33.4975 58.2883 33.8135 55.9648C33.7981 55.895 33.7839 55.8196 33.7656 55.7402C33.6392 55.1908 33.4464 54.435 33.1826 53.6123C32.6189 51.854 31.861 50.2176 31.0254 49.3818C30.1897 48.5461 28.5524 47.7884 26.7939 47.2246C25.9715 46.9609 25.2163 46.768 24.667 46.6416C24.3939 46.5787 24.1745 46.5333 24.0273 46.5039C23.9539 46.4892 23.8982 46.4782 23.8633 46.4717C23.8459 46.4684 23.833 46.4661 23.8262 46.4648C23.825 46.4645 23.8241 46.4641 23.8232 46.4639C22.6671 46.2613 21.8233 45.2577 21.8232 44.084C21.8232 42.9102 22.6671 41.9057 23.8232 41.7031C23.824 41.703 23.8251 41.7033 23.8262 41.7031C23.833 41.7019 23.8459 41.6995 23.8633 41.6963C23.8982 41.6898 23.9539 41.6787 24.0273 41.6641C24.1745 41.6347 24.3938 41.5892 24.667 41.5264C25.2163 41.4 25.9715 41.207 26.7939 40.9434C28.5524 40.3796 30.1897 39.6218 31.0254 38.7861C31.861 37.9504 32.6189 36.314 33.1826 34.5557C33.4464 33.733 33.6392 32.9772 33.7656 32.4277C33.8285 32.1545 33.8739 31.9352 33.9033 31.7881C33.9044 31.7828 33.9052 31.7776 33.9062 31.7725V5.41699C33.9063 4.08232 34.9886 3 36.3232 3ZM36.3232 39.8545C36.2731 39.8545 36.2232 39.8497 36.1738 39.8467C35.6929 40.7048 35.1218 41.5256 34.4434 42.2041C33.6942 42.9533 32.7724 43.5738 31.8174 44.084C32.7724 44.5941 33.6942 45.2147 34.4434 45.9639C35.1925 46.7131 35.8131 47.6348 36.3232 48.5898C36.8333 47.6349 37.453 46.7131 38.2021 45.9639C38.9515 45.2145 39.8739 44.5942 40.8291 44.084C39.8738 43.5738 38.9515 42.9535 38.2021 42.2041C37.5237 41.5256 36.9526 40.7047 36.4717 39.8467C36.4225 39.8497 36.3732 39.8545 36.3232 39.8545ZM24.542 8.4375C25.8766 8.43763 26.958 9.5199 26.958 10.8545V35.0205C26.958 36.3551 25.8766 37.4374 24.542 37.4375C23.2073 37.4375 22.125 36.3552 22.125 35.0205V10.8545C22.125 9.51981 23.2073 8.4375 24.542 8.4375Z" fill="#3D84FF"/>
</svg>
