<svg width="88" height="88" viewBox="0 0 88 88" fill="none" xmlns="http://www.w3.org/2000/svg">
<path d="M72.4551 22.1279C74.0862 22.1281 75.4081 23.45 75.4082 25.0811V57.5713C75.4082 63.2168 72.9327 68.7346 69.4229 73.1973C65.9058 77.6688 61.1427 81.352 56.1387 83.2285C54.6114 83.801 52.9087 83.0273 52.3359 81.5C51.7632 79.9727 52.5373 78.2702 54.0645 77.6973C57.9213 76.2509 61.8362 73.2881 64.7803 69.5449C67.7313 65.7928 69.5009 61.5251 69.501 57.5713V25.0811C69.5011 23.4499 70.8239 22.1279 72.4551 22.1279ZM44.3945 3.66699C46.0258 3.66699 47.3486 4.98982 47.3486 6.62109V38.835C47.3497 38.8401 47.3505 38.8453 47.3516 38.8506C47.3875 39.0305 47.4436 39.2988 47.5205 39.6328C47.675 40.3043 47.911 41.2279 48.2334 42.2334C48.9225 44.3824 49.8478 46.3829 50.8691 47.4043C51.8906 48.4257 53.8917 49.3509 56.041 50.04C56.0974 50.0581 56.1541 50.0743 56.21 50.0918V13.2666C56.21 11.6354 57.5319 10.3126 59.1631 10.3125C60.7944 10.3125 62.1172 11.6353 62.1172 13.2666V53.5098C62.1172 53.578 62.1129 53.6459 62.1084 53.7129C62.1115 53.768 62.1172 53.8232 62.1172 53.8789C62.1172 55.3135 61.085 56.5405 59.6719 56.7881C59.6708 56.7884 59.6695 56.7887 59.668 56.7891C59.6596 56.7906 59.6442 56.7929 59.623 56.7969C59.5805 56.8048 59.5126 56.818 59.4229 56.8359C59.243 56.8719 58.9746 56.928 58.6406 57.0049C57.9692 57.1594 57.0463 57.3955 56.041 57.7178C53.8917 58.4069 51.8906 59.3321 50.8691 60.3535C49.8477 61.375 48.9225 63.3761 48.2334 65.5254C47.9111 66.5307 47.675 67.4536 47.5205 68.125C47.4436 68.459 47.3875 68.7273 47.3516 68.9072C47.3337 68.9969 47.3205 69.0648 47.3125 69.1074C47.3085 69.1286 47.3062 69.144 47.3047 69.1523C47.3044 69.154 47.3049 69.1561 47.3047 69.1572C47.2599 69.4129 47.1805 69.6551 47.0762 69.8818C46.3866 73.8059 44.4192 77.381 41.6484 79.7715C38.0468 82.8787 32.9461 84.0244 28.0225 81.0137C16.8036 74.1533 13.75 60.9433 13.75 53.5098V38.3721C13.75 36.7408 15.0728 35.418 16.7041 35.418C18.3353 35.418 19.6572 36.7408 19.6572 38.3721V53.5098C19.6573 59.9516 22.3898 70.6448 31.1035 75.9736C33.486 77.4305 35.8017 77.0124 37.7891 75.2979C39.5647 73.7659 40.9415 71.2478 41.3301 68.4131C41.3105 68.324 41.292 68.2271 41.2686 68.125C41.114 67.4536 40.878 66.5307 40.5557 65.5254C39.8666 63.3761 38.9414 61.375 37.9199 60.3535C36.8985 59.3322 34.8981 58.4068 32.749 57.7178C31.7436 57.3954 30.8199 57.1594 30.1484 57.0049C29.8144 56.928 29.5461 56.8719 29.3662 56.8359C29.2766 56.818 29.2086 56.8048 29.166 56.7969C29.1449 56.7929 29.1295 56.7906 29.1211 56.7891C29.1196 56.7887 29.1183 56.7883 29.1172 56.7881L29.1162 56.7891C27.7032 56.5414 26.6729 55.3135 26.6729 53.8789C26.6729 52.4443 27.7041 51.2173 29.1172 50.9697C29.1183 50.9695 29.1195 50.969 29.1211 50.9688C29.1295 50.9672 29.1449 50.9649 29.166 50.9609C29.2086 50.953 29.2765 50.9398 29.3662 50.9219C29.5461 50.886 29.8144 50.8298 30.1484 50.7529C30.8199 50.5984 31.7436 50.3624 32.749 50.04C34.8981 49.351 36.8986 48.4256 37.9199 47.4043C38.9413 46.3829 39.8666 44.3825 40.5557 42.2334C40.878 41.228 41.114 40.3043 41.2686 39.6328C41.3454 39.2988 41.4016 39.0305 41.4375 38.8506C41.4389 38.8436 41.4401 38.8368 41.4414 38.8301V6.62109C41.4414 4.98987 42.7633 3.66708 44.3945 3.66699ZM44.5781 48.7041C44.5174 48.7078 44.4562 48.7109 44.3945 48.7109C44.3325 48.7109 44.271 48.7079 44.21 48.7041C43.6226 49.7515 42.9249 50.7528 42.0967 51.5811C41.181 52.4968 40.055 53.2554 38.8877 53.8789C40.055 54.5024 41.181 55.2611 42.0967 56.1768C43.0124 57.0925 43.771 58.2185 44.3945 59.3857C45.018 58.2184 45.7767 57.0925 46.6924 56.1768C47.6083 55.2608 48.7348 54.5025 49.9023 53.8789C48.7348 53.2553 47.6083 52.497 46.6924 51.5811C45.864 50.7527 45.1655 49.7516 44.5781 48.7041ZM29.9951 10.3125C31.6264 10.3125 32.9492 11.6353 32.9492 13.2666V42.8027C32.9492 44.434 31.6264 45.7568 29.9951 45.7568C28.364 45.7566 27.042 44.4339 27.042 42.8027V13.2666C27.042 11.6354 28.364 10.3127 29.9951 10.3125Z" fill="url(#paint0_linear_301_1932)"/>
<defs>
<linearGradient id="paint0_linear_301_1932" x1="72.9419" y1="17.9717" x2="28.9568" y2="83.5196" gradientUnits="userSpaceOnUse">
<stop stop-color="#0C58FF"/>
<stop offset="1" stop-color="#3FB6FF"/>
</linearGradient>
</defs>
</svg>
