<svg width="96" height="96" viewBox="0 0 96 96" fill="none" xmlns="http://www.w3.org/2000/svg">
<path d="M19.48 24.1025C24.8307 24.1025 29.1682 28.4404 29.1685 33.791C29.1685 38.0094 26.4723 41.5966 22.7095 42.9268V63.6631C22.7095 67.9863 24.6448 72.6523 27.8716 76.7549C31.0906 80.8475 35.3704 84.0866 39.5874 85.668C41.2575 86.2942 42.1033 88.1561 41.4771 89.8262C40.8506 91.4958 38.9897 92.3419 37.3198 91.7158C31.8483 89.664 26.64 85.6364 22.7944 80.7471C18.957 75.8678 16.2505 69.8356 16.2505 63.6631V42.9268C12.4879 41.5965 9.7915 38.0092 9.7915 33.791C9.79175 28.4405 14.1294 24.1027 19.48 24.1025ZM49.353 3.91699C51.1367 3.91699 52.5825 5.36286 52.5825 7.14648V31.6504C54.051 30.9526 55.6933 30.5605 57.4272 30.5605C59.1613 30.5606 60.8035 30.9526 62.272 31.6504V14.4131C62.272 12.6296 63.7179 11.1837 65.5015 11.1836C67.2851 11.1836 68.7309 12.6295 68.731 14.4131V46.71H73.5874C73.6408 46.7102 73.6939 46.7111 73.7466 46.7139C75.4171 46.7387 76.9996 47.1234 78.4194 47.7979V27.332C78.4196 25.5486 79.8654 24.1025 81.6489 24.1025C83.4324 24.1026 84.8782 25.5486 84.8784 27.332V58.0127C84.8784 64.2552 79.8182 69.3162 73.5757 69.3164L68.731 69.3154V73.3525C68.731 73.4892 68.7201 73.6237 68.7036 73.7559C68.7201 73.8881 68.73 74.0225 68.73 74.1592C68.73 80.4018 63.6699 85.4628 57.4272 85.4629C51.1846 85.4629 46.1235 80.4019 46.1235 74.1592C46.1235 74.0213 46.1321 73.8853 46.1489 73.752C46.1328 73.6211 46.1245 73.4878 46.1245 73.3525V69.3154H41.3208C41.3071 69.3156 41.2935 69.3164 41.2798 69.3164C35.0371 69.3164 29.9761 64.2554 29.9761 58.0127C29.9762 51.8275 34.9445 46.8057 41.1079 46.7139C41.1648 46.7109 41.2221 46.71 41.2798 46.71H46.1235V7.14648C46.1235 5.36293 47.5695 3.9171 49.353 3.91699ZM57.4272 37.0195C54.7518 37.0195 52.5825 39.1888 52.5825 41.8643V49.8975C52.5827 49.9113 52.5835 49.9255 52.5835 49.9395C52.5833 51.7229 51.1374 53.1688 49.354 53.1689H41.2798L41.0308 53.1748C38.4711 53.3043 36.4352 55.4208 36.4351 58.0127C36.4351 60.6823 38.5948 62.8471 41.2622 62.8564H49.354C49.4097 62.8564 49.465 62.8576 49.52 62.8604C51.2264 62.9468 52.5834 64.3581 52.5835 66.0859V73.3525C52.5835 73.4902 52.5738 73.6257 52.5571 73.7588C52.5734 73.89 52.5825 74.0236 52.5825 74.1592C52.5825 76.8346 54.7518 79.0039 57.4272 79.0039C60.1026 79.0038 62.271 76.8346 62.271 74.1592C62.271 74.0226 62.2799 73.888 62.2964 73.7559C62.2799 73.6237 62.271 73.4891 62.271 73.3525V66.0859C62.2711 64.3025 63.7171 62.8567 65.5005 62.8564H73.5923C76.2599 62.8473 78.4194 60.6824 78.4194 58.0127C78.4193 55.3376 76.2508 53.1692 73.5757 53.1689H73.5747H65.5015C64.7628 53.1689 64.0837 52.9183 63.5396 52.501C63.5237 52.4888 63.5073 52.4773 63.4917 52.4648C63.432 52.4173 63.375 52.367 63.3188 52.3154C63.2983 52.2966 63.2774 52.2782 63.2573 52.2588C63.209 52.212 63.163 52.163 63.1177 52.1133C63.094 52.0874 63.0702 52.0618 63.0474 52.0352C63.0058 51.9865 62.9669 51.9358 62.9282 51.8848C62.9051 51.8542 62.881 51.8244 62.8589 51.793C62.81 51.7234 62.7626 51.6526 62.7192 51.5791C62.7151 51.5721 62.7116 51.5647 62.7075 51.5576C62.5094 51.2164 62.371 50.8363 62.3091 50.4307C62.2927 50.3236 62.2815 50.2148 62.2759 50.1045L62.272 49.9375V41.8975C62.2719 41.8864 62.271 41.8753 62.271 41.8643C62.271 39.1889 60.1026 37.0196 57.4272 37.0195ZM19.48 30.5615C17.6966 30.5617 16.2507 32.0077 16.2505 33.791C16.2505 35.5745 17.6965 37.0204 19.48 37.0205C21.2636 37.0205 22.7095 35.5746 22.7095 33.791C22.7092 32.0076 21.2635 30.5615 19.48 30.5615Z" fill="#3D84FF"/>
</svg>
