<svg width="72" height="72" viewBox="0 0 72 72" fill="none" xmlns="http://www.w3.org/2000/svg">
<path d="M14.6101 18.0771C18.6232 18.0772 21.8767 21.3306 21.8767 25.3438C21.8765 28.5073 19.8539 31.1967 17.032 32.1943V47.748C17.0321 50.9903 18.4841 54.4896 20.9041 57.5664C23.3183 60.6358 26.5275 63.0659 29.6902 64.252C30.9427 64.7217 31.5779 66.1176 31.1082 67.3701C30.6383 68.6223 29.2424 69.2566 27.99 68.7871C23.8863 67.2482 19.9806 64.2276 17.0964 60.5605C14.2183 56.9011 12.1884 52.3774 12.1882 47.748V32.1943C9.36622 31.1968 7.34368 28.5073 7.34351 25.3438C7.34351 21.3306 10.597 18.0771 14.6101 18.0771ZM37.0144 2.9375C38.3521 2.9375 39.4373 4.02264 39.4373 5.36035V23.7373C40.5384 23.2142 41.7699 22.9209 43.0701 22.9209C44.3705 22.9209 45.6025 23.214 46.7039 23.7373V10.8105C46.7039 9.47287 47.7881 8.38776 49.1257 8.3877C50.4634 8.3877 51.5476 9.47283 51.5476 10.8105V35.0322H55.1814L55.6169 35.043C56.7567 35.1007 57.8368 35.3843 58.8142 35.8486V20.499C58.8142 19.1614 59.8985 18.0773 61.2361 18.0771C62.5738 18.0771 63.6589 19.1613 63.6589 20.499V43.5098L63.6472 43.9463C63.42 48.4252 59.7168 51.9871 55.1814 51.9873L51.5476 51.9863V55.0146C51.5476 55.117 51.5385 55.2174 51.5261 55.3164C51.5385 55.4157 51.5476 55.5165 51.5476 55.6191C51.5476 60.3011 47.752 64.0967 43.0701 64.0967C38.3882 64.0965 34.5926 60.301 34.5925 55.6191C34.5925 55.5166 34.6007 55.4156 34.613 55.3164C34.6007 55.2175 34.5935 55.1169 34.5935 55.0146V51.9863H30.9783C30.9721 51.9864 30.9659 51.9873 30.9597 51.9873C26.2778 51.9873 22.4823 48.1917 22.4822 43.5098C22.4822 38.8278 26.2777 35.0322 30.9597 35.0322H34.5925V5.36035C34.5925 4.02277 35.6769 2.93771 37.0144 2.9375ZM43.0701 27.7646C41.0636 27.7648 39.4373 29.392 39.4373 31.3984V37.4541C39.4373 38.7918 38.353 39.8759 37.0154 39.876H30.9597L30.7722 39.8809C28.8527 39.9783 27.3259 41.566 27.3259 43.5098C27.326 45.5163 28.9532 47.1426 30.9597 47.1426H37.0154C37.0988 47.1426 37.1812 47.147 37.2625 47.1553C38.484 47.2791 39.4372 48.3103 39.4373 49.5645V55.0146C39.4372 55.117 39.4281 55.2174 39.4158 55.3164C39.4282 55.4157 39.4373 55.5165 39.4373 55.6191C39.4373 57.6256 41.0636 59.2518 43.0701 59.252C45.0766 59.252 46.7038 57.6257 46.7039 55.6191C46.7039 55.5166 46.711 55.4156 46.7234 55.3164C46.7111 55.2175 46.7039 55.1169 46.7039 55.0146V49.5645C46.7039 48.3105 47.6565 47.2795 48.8777 47.1553C48.9592 47.147 49.042 47.1426 49.1257 47.1426H55.1814C57.1877 47.1423 58.8141 45.5161 58.8142 43.5098C58.8142 41.5659 57.2876 39.9782 55.3679 39.8809L55.1814 39.876H49.1257L48.8777 39.8643C48.8295 39.8594 48.7824 39.8495 48.7351 39.8418C48.7048 39.8369 48.6742 39.8342 48.6443 39.8281C48.5933 39.8178 48.5436 39.8035 48.4939 39.79C48.4701 39.7836 48.4461 39.7786 48.4226 39.7715C48.3705 39.7557 48.3198 39.7369 48.2693 39.7178C48.2472 39.7094 48.2247 39.7023 48.2029 39.6934C48.1552 39.6737 48.1093 39.6505 48.0632 39.6279C48.0399 39.6165 48.0158 39.6069 47.9929 39.5947C47.9466 39.5702 47.9026 39.5421 47.8582 39.5146C47.8387 39.5027 47.8186 39.492 47.7996 39.4795C47.7536 39.4493 47.7095 39.4169 47.6658 39.3838C47.6485 39.3707 47.6309 39.3582 47.614 39.3447C47.5747 39.3132 47.537 39.2799 47.4998 39.2461C47.4798 39.228 47.4595 39.2102 47.4402 39.1914C47.4112 39.1633 47.3837 39.134 47.3562 39.1045C47.3291 39.0755 47.3017 39.0469 47.2761 39.0166C47.2526 38.9888 47.231 38.9595 47.2087 38.9307C47.186 38.9012 47.1627 38.8723 47.1414 38.8418C47.1169 38.8069 47.0946 38.7706 47.072 38.7344C47.0537 38.705 47.0354 38.6757 47.0183 38.6455C47.0003 38.6137 46.9831 38.5815 46.9666 38.5488C46.9466 38.5096 46.9268 38.4702 46.9089 38.4297C46.8962 38.4008 46.8854 38.3712 46.8738 38.3418C46.8576 38.3009 46.8418 38.2598 46.8279 38.2178C46.8159 38.1817 46.805 38.1452 46.7947 38.1084C46.7841 38.0706 46.7742 38.0326 46.7654 37.9941C46.757 37.9573 46.7496 37.9202 46.7429 37.8828C46.735 37.8386 46.7289 37.794 46.7234 37.749C46.7194 37.7163 46.7163 37.6835 46.7136 37.6504C46.7117 37.6267 46.708 37.603 46.7068 37.5791L46.7039 37.4541V31.3984C46.7039 29.3919 45.0766 27.7646 43.0701 27.7646ZM14.6101 22.9209C13.2724 22.9209 12.1882 24.006 12.1882 25.3438C12.1884 26.6813 13.2725 27.7656 14.6101 27.7656C15.9476 27.7656 17.0318 26.6812 17.032 25.3438C17.032 24.0061 15.9478 22.921 14.6101 22.9209Z" fill="#E2E4E8"/>
</svg>
