<svg xmlns="http://www.w3.org/2000/svg" width="19" height="22" viewBox="0 0 19 22" fill="none">
  <path d="M2.42188 5.04688C3.7595 5.04688 4.8436 6.13116 4.84375 7.46875C4.84375 8.52297 4.16969 9.41719 3.22949 9.75V14.9375C3.22958 16.0181 3.71306 17.1845 4.51953 18.21C5.32429 19.2331 6.39496 20.0431 7.44922 20.4385C7.8665 20.5951 8.07731 21.0602 7.9209 21.4775C7.76433 21.895 7.29934 22.1067 6.88184 21.9502C5.51403 21.4372 4.21232 20.4303 3.25098 19.208C2.29165 17.9882 1.61434 16.4805 1.61426 14.9375V9.75C0.674259 9.41708 0 8.52283 0 7.46875C0.000148259 6.13123 1.08435 5.04699 2.42188 5.04688ZM9.89062 0C10.3363 0.000126387 10.6981 0.361906 10.6982 0.807617V6.93652C11.0655 6.76194 11.4755 6.66211 11.9092 6.66211C12.343 6.66216 12.7528 6.76182 13.1201 6.93652V2.625C13.1201 2.17909 13.4818 1.81738 13.9277 1.81738C14.3734 1.81761 14.7344 2.17923 14.7344 2.625V10.6982H15.9453C15.9738 10.6982 16.0025 10.6993 16.0303 10.7021C16.433 10.714 16.8138 10.8093 17.1572 10.9727V5.85449C17.1572 5.40871 17.5181 5.04708 17.9639 5.04688C18.4098 5.04688 18.7715 5.40859 18.7715 5.85449V13.5244L18.7568 13.8135C18.6147 15.2103 17.4553 16.3024 16.0312 16.3447C16.0031 16.3477 15.9742 16.3506 15.9453 16.3506H14.7344V17.3594C14.7344 17.3934 14.7316 17.427 14.7275 17.46C14.7317 17.4932 14.7344 17.5272 14.7344 17.5615C14.7342 19.122 13.4696 20.3865 11.9092 20.3867C10.3486 20.3867 9.08313 19.1221 9.08301 17.5615C9.08301 17.5272 9.08472 17.4931 9.08887 17.46C9.08479 17.4271 9.08301 17.3933 9.08301 17.3594V16.3506H7.87207C7.84273 16.3506 7.81368 16.3478 7.78516 16.3447C6.2648 16.2988 5.04607 15.0559 5.0459 13.5244C5.0459 11.9925 6.2652 10.7475 7.78613 10.7021C7.8143 10.6992 7.84312 10.6982 7.87207 10.6982H9.08301V0.807617C9.08315 0.361829 9.4448 1.94874e-08 9.89062 0ZM11.9092 8.27637C11.2437 8.27637 10.7036 8.81329 10.6982 9.47754V11.5059C10.6982 11.9239 10.3799 12.2674 9.97266 12.3086L9.89062 12.3135H7.87207L7.74805 12.3193C7.13739 12.3814 6.66113 12.8974 6.66113 13.5244C6.66131 14.1931 7.20332 14.7354 7.87207 14.7354H9.89062C10.3364 14.7355 10.6982 15.0972 10.6982 15.543V17.3594C10.6982 17.3934 10.6945 17.427 10.6904 17.46C10.6946 17.4932 10.6982 17.5272 10.6982 17.5615C10.6984 18.2303 11.2404 18.7725 11.9092 18.7725C12.5778 18.7723 13.12 18.2302 13.1201 17.5615C13.1201 17.5272 13.1218 17.4931 13.126 17.46C13.1219 17.4271 13.1201 17.3934 13.1201 17.3594V15.543C13.1201 15.1528 13.3967 14.8272 13.7646 14.752C13.8172 14.7412 13.872 14.7354 13.9277 14.7354H15.9453C16.6141 14.7354 17.157 14.1931 17.1572 13.5244C17.1572 12.8973 16.6801 12.3812 16.0693 12.3193L15.9453 12.3135H13.9277L13.8477 12.3096C13.8205 12.3069 13.7939 12.3022 13.7676 12.2969C13.722 12.2877 13.6782 12.2743 13.6357 12.2578C13.6296 12.2554 13.6233 12.2535 13.6172 12.251C13.5755 12.2336 13.5359 12.2123 13.498 12.1885C13.4928 12.1852 13.4875 12.1821 13.4824 12.1787C13.47 12.1705 13.4592 12.1602 13.4473 12.1514C13.4165 12.1285 13.3865 12.1051 13.3594 12.0781C13.3518 12.0707 13.3451 12.0625 13.3379 12.0547C13.3109 12.0257 13.2852 11.9956 13.2627 11.9629C13.2409 11.9312 13.2213 11.898 13.2041 11.8633C13.1996 11.8542 13.1946 11.8453 13.1904 11.8359C13.1726 11.7963 13.1587 11.7547 13.1475 11.7119C13.1447 11.7015 13.142 11.6912 13.1396 11.6807C13.1377 11.6719 13.1354 11.6632 13.1338 11.6543C13.1307 11.6379 13.128 11.6213 13.126 11.6045C13.1245 11.5922 13.124 11.5798 13.123 11.5674C13.1226 11.5609 13.1214 11.5544 13.1211 11.5479L13.1201 11.5059V9.4873C13.12 8.81867 12.5778 8.27655 11.9092 8.27637ZM2.42188 6.66211C1.97616 6.66222 1.61441 7.02304 1.61426 7.46875C1.61426 7.91458 1.97607 8.27625 2.42188 8.27637C2.86778 8.27637 3.22949 7.91466 3.22949 7.46875C3.22934 7.02297 2.86769 6.66211 2.42188 6.66211Z" fill="#1A1A1A"/>
</svg>