<svg xmlns="http://www.w3.org/2000/svg" width="24" height="24" viewBox="0 0 24 24" fill="none">
  <path d="M4.28125 10.1836C4.7128 10.1836 5.06328 10.5333 5.06348 10.9648V14.874L5.07715 15.2031C5.30974 18.5866 8.28437 21.3223 11.999 21.3223C15.8332 21.3221 18.8791 18.4073 18.9346 14.874H18.9365V14.873C18.9367 14.4415 19.2872 14.0918 19.7188 14.0918C20.1501 14.092 20.4998 14.4417 20.5 14.873C20.5 14.906 20.4971 14.9388 20.4932 14.9707C20.3844 19.395 16.5873 22.8846 11.999 22.8848C7.58936 22.8848 3.9099 19.6616 3.5332 15.4834C3.51643 15.4261 3.50415 15.3666 3.50098 15.3047L3.5 15.2637V10.9648C3.50019 10.5335 3.84986 10.1838 4.28125 10.1836ZM12 1C12.4315 1 12.7811 1.34975 12.7812 1.78125V5.16895C13.6731 5.31851 14.4794 5.71944 15.125 6.29688V3.54004C15.125 3.10853 15.4748 2.75905 15.9062 2.75879C16.3379 2.75879 16.6885 3.10837 16.6885 3.54004V9.74707C16.6886 9.76236 16.6895 9.77765 16.6895 9.79297V14.0918C16.6895 14.1035 16.6886 14.1153 16.6885 14.127V14.1895C16.6885 14.2016 16.6871 14.2136 16.6865 14.2256C16.6158 16.7538 14.5453 18.7812 12 18.7812C9.47304 18.7812 7.41326 16.783 7.31445 14.2803C7.311 14.2505 7.3086 14.2202 7.30859 14.1895V3.54004C7.30859 3.10837 7.65915 2.75879 8.09082 2.75879C8.5224 2.75889 8.87207 3.10843 8.87207 3.54004V6.2998C9.51818 5.72089 10.3255 5.31876 11.2188 5.16895V1.78125C11.2189 1.34974 11.5684 1 12 1ZM12 6.66699C10.4057 6.667 9.0908 7.86016 8.89844 9.40234H12C12.4316 9.40234 12.7811 9.75209 12.7812 10.1836C12.7812 10.6153 12.4317 10.9658 12 10.9658H8.87402V12.333H12C12.4316 12.333 12.7811 12.6828 12.7812 13.1143C12.7812 13.5459 12.4317 13.8965 12 13.8965H8.87402V14.0918C8.87402 15.8185 10.2733 17.2187 12 17.2188C13.715 17.2188 15.1063 15.8375 15.125 14.127V9.74707C15.1003 8.04165 13.7113 6.66699 12 6.66699ZM19.7188 10.9658C20.1502 10.966 20.5 11.3155 20.5 11.7471C20.4999 12.1786 20.1502 12.5281 19.7188 12.5283C19.2871 12.5283 18.9366 12.1787 18.9365 11.7471C18.9365 11.3154 19.2871 10.9658 19.7188 10.9658Z" fill="#1A1A1A"/>
</svg>