<svg xmlns="http://www.w3.org/2000/svg" width="24" height="24" viewBox="0 0 24 24" fill="none">
  <path d="M16.1708 20.1342C16.8142 20.6947 17.6407 21.0025 18.4956 21C19.3505 20.9974 20.1751 20.6847 20.8152 20.1204C21.4552 19.5561 21.8668 18.7788 21.9728 17.9341C22.0789 17.0894 21.8721 16.2352 21.3913 15.5314C20.9104 14.8275 20.1884 14.3223 19.3605 14.1103C18.5325 13.8983 17.6553 13.994 16.8932 14.3796C16.131 14.7651 15.536 15.414 15.2197 16.2049M15 14.0174L15 16.2049L17.1968 16.2049" stroke="#343841" stroke-width="1.5" stroke-linecap="round" stroke-linejoin="round"/>
  <circle cx="12" cy="7" r="4" stroke="#343841" stroke-width="1.5"/>
  <path d="M12 14C10 14 6.771 14.1 4.371 16.5C1.371 19.5 3.871 21.5 6.371 21.5C8.371 21.5 10.3333 21.5 13.5 21.5" stroke="#343841" stroke-width="1.5" stroke-linecap="round"/>
</svg>