<svg width="24" height="24" viewBox="0 0 24 24" fill="none" xmlns="http://www.w3.org/2000/svg">
<path d="M21.25 9.944V14.056C21.2492 14.3283 21.1406 14.5892 20.948 14.7817C20.7553 14.9741 20.4943 15.0825 20.222 15.083H15.083V20.223C15.0822 20.4951 14.9738 20.7559 14.7813 20.9483C14.5889 21.1408 14.3281 21.2492 14.056 21.25H9.944C9.67169 21.2492 9.41078 21.1406 9.21832 20.948C9.02587 20.7553 8.91753 20.4943 8.917 20.222V15.083H3.777C3.50487 15.0822 3.2441 14.9738 3.05168 14.7813C2.85925 14.5889 2.75079 14.3281 2.75 14.056V9.944C2.75079 9.67169 2.85939 9.41078 3.05203 9.21832C3.24467 9.02587 3.50569 8.91753 3.778 8.917H8.917V3.777C8.91779 3.50487 9.02625 3.2441 9.21868 3.05168C9.4111 2.85925 9.67187 2.75079 9.944 2.75H14.056C14.3283 2.75079 14.5892 2.85939 14.7817 3.05203C14.9741 3.24467 15.0825 3.50569 15.083 3.778V8.917H20.223C20.4951 8.91779 20.7559 9.02625 20.9483 9.21868C21.1408 9.4111 21.2492 9.67187 21.25 9.944Z" stroke="#343841" stroke-width="1.5" stroke-linecap="round" stroke-linejoin="round"/>
</svg>
