<svg xmlns="http://www.w3.org/2000/svg" width="10" height="14" viewBox="0 0 10 14" fill="none">
  <path d="M1.57459 0.29254L2.29259 0.0632065C2.96459 -0.15146 3.68326 0.195873 3.97126 0.87454L4.54459 2.22654C4.79459 2.81521 4.65592 3.50787 4.20192 3.93854L2.93992 5.13721C3.0177 5.85454 3.25859 6.56054 3.66259 7.25521C4.04677 7.92712 4.56155 8.51533 5.17659 8.98521L6.69392 8.47854C7.26859 8.28721 7.89459 8.50787 8.24726 9.02587L9.06859 10.2325C9.47926 10.8352 9.40525 11.6659 8.89659 12.1765L8.35126 12.7239C7.80859 13.2685 7.03392 13.4665 6.31659 13.2425C4.62414 12.7145 3.06792 11.1472 1.64792 8.54054C0.226145 5.92943 -0.275633 3.71432 0.14259 1.89521C0.31859 1.12987 0.863923 0.519873 1.57592 0.29254" fill="#A9ACB2"/>
</svg>