<svg xmlns="http://www.w3.org/2000/svg" width="48" height="27" viewBox="0 0 48 27" fill="none">
  <path d="M27.0305 2.48005C27.6093 2.48005 28.0785 2.94925 28.0785 3.52804V5.93076H35.0567V3.52804C35.0567 2.94925 35.5259 2.48005 36.1046 2.48005C36.6834 2.48005 37.1526 2.94925 37.1526 3.52804V12.321C37.1526 12.5766 37.0504 12.7299 36.8204 12.7299H29.0754C28.4108 12.7299 27.8996 12.6277 27.5418 12.2698L26.5193 11.2474C26.1359 10.8384 25.9825 10.5061 25.9825 9.66264V3.52805C25.9825 2.94925 26.4517 2.48005 27.0305 2.48005ZM29.5611 10.9662H35.0567V7.6689H28.0785V9.43259C28.0785 9.89269 28.1552 10.0461 28.3341 10.225L28.7942 10.6595C29.0243 10.9151 29.1521 10.9662 29.5611 10.9662ZM42.1626 3.28522C42.1626 2.71348 42.6261 2.25 43.1978 2.25C43.7695 2.25 44.233 2.71348 44.233 3.28522V13.8802H42.1626V3.28522ZM27.1583 18.7879V16.973H34.7755V15.2349C34.7755 14.6561 35.2447 14.1869 35.8235 14.1869C36.4023 14.1869 36.8715 14.6561 36.8715 15.2349V16.973H44.7187V18.7879H36.897V19.4013C36.897 19.7592 37.076 19.9637 37.4338 20.117C39.811 21.1395 42.3926 22.0341 44.9998 22.852L44.3352 24.4879C41.4469 23.5933 38.7119 22.6475 36.2325 21.574C36.2283 21.5723 36.224 21.5706 36.2197 21.5687C36.0316 21.4891 35.6313 21.5023 35.4401 21.574C32.8584 22.6987 30.2001 23.6955 27.4651 24.6668L26.7494 23.031C29.3821 22.1619 31.8871 21.2161 34.2387 20.117C34.5454 19.9637 34.7244 19.7592 34.7244 19.4013V18.7879H27.1583Z" fill="url(#paint0_linear_303_1453)"/>
  <path d="M21.6594 24.258H7.60096C6.83413 24.258 6.37403 24.1558 5.9395 23.7212L4.86594 22.7244C4.43141 22.2643 4.22692 21.8297 4.22692 21.0885V18.2895C4.22692 17.7037 4.70185 17.2288 5.2877 17.2288C5.87355 17.2288 6.34847 17.7037 6.34847 18.2895V20.8073C6.34847 21.2418 6.45072 21.4207 6.70633 21.6764L7.16642 22.1365C7.39647 22.3665 7.60096 22.4432 8.00993 22.4432H21.6594V24.258ZM14.3746 5.93088C16.9051 7.41341 19.5123 8.76814 22.0428 10.0462L21.0971 11.6565C18.4643 10.404 15.8571 8.94706 13.2755 7.38785C13.1477 7.31117 12.9687 7.18337 12.8921 7.00444C12.8154 7.18337 12.6876 7.26005 12.4831 7.38785C10.0292 8.97262 7.39647 10.4296 4.73814 11.7588L3.76683 10.1484C6.34847 8.81926 8.85344 7.41341 11.3073 5.93088C11.614 5.7264 11.7929 5.57303 11.7929 5.18962V3.41314C11.7929 2.84141 12.2564 2.37793 12.8282 2.37793C13.3999 2.37793 13.8634 2.84141 13.8634 3.41314V5.18962C13.8634 5.57303 14.0423 5.7264 14.3746 5.93088ZM22.7841 15.5418H3V13.8036H11.7929V11.4392C11.7929 10.8675 12.2564 10.404 12.8282 10.404C13.3999 10.404 13.8634 10.8675 13.8634 11.4392V13.8036H22.7841V15.5418Z" fill="url(#paint1_linear_303_1453)"/>
  <defs>
    <linearGradient id="paint0_linear_303_1453" x1="18.8433" y1="-3.00275" x2="33.0416" y2="25.0375" gradientUnits="userSpaceOnUse">
      <stop stop-color="#0C58FF"/>
      <stop offset="1" stop-color="#3FB6FF"/>
    </linearGradient>
    <linearGradient id="paint1_linear_303_1453" x1="18.844" y1="-3.00262" x2="33.0423" y2="25.0377" gradientUnits="userSpaceOnUse">
      <stop stop-color="#0C58FF"/>
      <stop offset="1" stop-color="#3FB6FF"/>
    </linearGradient>
  </defs>2





































  
</svg>