<svg width="192" height="72" viewBox="0 0 192 72" fill="none" xmlns="http://www.w3.org/2000/svg">
<path d="M14.6094 18.0781C18.6222 18.0781 21.8746 21.331 21.875 25.3438C21.875 28.5064 19.8528 31.1891 17.0322 32.1875V47.75C17.0325 50.9919 18.4829 54.4909 20.9023 57.5674C23.3166 60.6369 26.5286 63.0669 29.6914 64.2529C30.9432 64.7229 31.5757 66.118 31.1064 67.3701C30.6368 68.6226 29.2418 69.2577 27.9893 68.7881C23.8858 67.2492 19.9807 64.2284 17.0967 60.5615C14.2187 56.9022 12.1868 52.3792 12.1865 47.75V32.1875C9.36653 31.1887 7.34375 28.506 7.34375 25.3438C7.34419 21.3312 10.5968 18.0785 14.6094 18.0781ZM37.0156 2.9375C38.3528 2.93788 39.4381 4.02322 39.4385 5.36035V23.7471C40.5402 23.2233 41.7702 22.9238 43.0713 22.9238C44.3726 22.924 45.6022 23.2229 46.7041 23.7471V10.8125C46.7041 9.47478 47.7892 8.38965 49.127 8.38965C50.4641 8.39033 51.5469 9.4752 51.5469 10.8125V35.0322H55.1797C55.2653 35.0322 55.3513 35.0353 55.4346 35.0439C56.6428 35.0795 57.7852 35.3654 58.8154 35.8555V20.501C58.8154 19.1636 59.8982 18.0787 61.2354 18.0781C62.5731 18.0781 63.6582 19.1633 63.6582 20.501V43.5107L63.6143 44.3779C63.188 48.5684 59.7097 51.8446 55.4375 51.9717C55.3531 51.9806 55.2664 51.9893 55.1797 51.9893H51.5469V55.0156C51.5469 55.1177 51.5386 55.2186 51.5264 55.3174C51.5389 55.4171 51.5469 55.519 51.5469 55.6221C51.5465 60.3034 47.7526 64.0971 43.0713 64.0977C38.3895 64.0977 34.5932 60.3038 34.5928 55.6221C34.5928 55.5192 34.5979 55.4169 34.6104 55.3174C34.5981 55.2188 34.5928 55.1175 34.5928 55.0156V51.9893H30.96C30.8719 51.9893 30.7848 51.9808 30.6992 51.9717C26.1382 51.8339 22.482 48.1051 22.4814 43.5107C22.4814 38.9149 26.1393 35.1801 30.7021 35.0439C30.7866 35.035 30.8731 35.0322 30.96 35.0322H34.5928V5.36035C34.5932 4.02299 35.6782 2.9375 37.0156 2.9375ZM43.0713 27.7666C41.0747 27.7666 39.4546 29.3774 39.4385 31.3701V37.4551C39.4382 38.7092 38.4833 39.7396 37.2617 39.8633L37.0156 39.8779H30.96L30.5879 39.8955C28.7559 40.0817 27.3271 41.6297 27.3271 43.5107C27.3277 45.5169 28.9537 47.1436 30.96 47.1436H37.0156C38.353 47.144 39.4384 48.229 39.4385 49.5664V55.0156C39.4385 55.1177 39.4273 55.2186 39.415 55.3174C39.4275 55.4171 39.4385 55.519 39.4385 55.6221C39.4389 57.6283 41.0649 59.2549 43.0713 59.2549C45.0772 59.2543 46.7037 57.628 46.7041 55.6221C46.7041 55.5191 46.7092 55.4169 46.7217 55.3174C46.7095 55.2188 46.7041 55.1176 46.7041 55.0156V49.5664C46.7041 48.3959 47.5339 47.4191 48.6377 47.1934C48.7953 47.1611 48.9598 47.1436 49.127 47.1436H55.1797C57.1859 47.1436 58.8149 45.5169 58.8154 43.5107C58.8154 41.6293 57.3842 40.0812 55.5518 39.8955L55.1797 39.8779H49.127L48.8867 39.8662C48.8052 39.8582 48.7254 39.844 48.6465 39.8281C48.5099 39.8007 48.3782 39.7603 48.251 39.7109C48.2325 39.7038 48.2136 39.698 48.1953 39.6904C48.0701 39.6383 47.9514 39.5744 47.8379 39.5029C47.8223 39.4931 47.8064 39.4838 47.791 39.4736C47.7538 39.449 47.7213 39.4182 47.6855 39.3916C47.5934 39.3229 47.5033 39.2527 47.4219 39.1719C47.3993 39.1495 47.3791 39.1249 47.3574 39.1016C47.2764 39.0146 47.1995 38.9243 47.1318 38.8262C47.0663 38.7312 47.0077 38.6315 46.9561 38.5273C46.9425 38.5 46.9276 38.4733 46.915 38.4453C46.8616 38.3263 46.82 38.2015 46.7861 38.0732C46.7779 38.0421 46.7697 38.0111 46.7627 37.9795C46.7569 37.9532 46.7501 37.927 46.7451 37.9004C46.736 37.8511 46.7278 37.8013 46.7217 37.751C46.7172 37.7142 46.7157 37.677 46.7129 37.6397C46.7114 37.6201 46.708 37.6007 46.707 37.5811L46.7041 37.4551V31.3994C46.7037 29.3935 45.0772 27.7672 43.0713 27.7666ZM14.6094 22.9238C13.2722 22.9242 12.187 24.0066 12.1865 25.3438C12.1865 26.6813 13.272 27.7663 14.6094 27.7666C15.9471 27.7666 17.0322 26.6815 17.0322 25.3438C17.0318 24.0064 15.9468 22.9238 14.6094 22.9238Z" fill="#E2E4E8"/>
<path d="M179.281 18.1045C180.616 18.1045 181.698 19.1868 181.698 20.5215V47.1045C181.698 51.7234 179.672 56.2375 176.801 59.8887C173.923 63.5473 170.026 66.5604 165.932 68.0957C164.682 68.5642 163.289 67.9313 162.82 66.6816C162.352 65.432 162.986 64.0389 164.235 63.5703C167.391 62.3869 170.593 59.9628 173.002 56.9004C175.416 53.8306 176.864 50.3394 176.864 47.1045V20.5215C176.864 19.1868 177.947 18.1045 179.281 18.1045ZM156.323 3C157.658 3.00017 158.739 4.08243 158.739 5.41699V31.7725C158.74 31.7776 158.741 31.7828 158.742 31.7881C158.772 31.9353 158.818 32.1545 158.881 32.4277C159.007 32.9772 159.2 33.733 159.464 34.5557C160.028 36.3138 160.785 37.9504 161.62 38.7861C162.456 39.6218 164.093 40.3796 165.852 40.9434C165.898 40.9581 165.944 40.9711 165.989 40.9854V10.8545C165.989 9.51981 167.072 8.4375 168.406 8.4375C169.741 8.4375 170.823 9.51981 170.823 10.8545V43.7812C170.823 43.8285 170.818 43.8753 170.815 43.9219C170.819 43.9755 170.823 44.0296 170.823 44.084C170.823 45.2577 169.978 46.2613 168.822 46.4639C168.821 46.4641 168.82 46.4646 168.819 46.4648C168.812 46.4661 168.8 46.4684 168.782 46.4717C168.747 46.4782 168.691 46.4893 168.618 46.5039C168.471 46.5333 168.252 46.5788 167.979 46.6416C167.429 46.768 166.674 46.9609 165.852 47.2246C164.093 47.7884 162.456 48.5461 161.62 49.3818C160.785 50.2176 160.028 51.8541 159.464 53.6123C159.2 54.435 159.007 55.1908 158.881 55.7402C158.818 56.0134 158.772 56.2327 158.742 56.3799C158.728 56.4532 158.717 56.5091 158.711 56.5439C158.708 56.5611 158.705 56.5732 158.704 56.5801L158.703 56.584C158.667 56.7929 158.603 56.9914 158.518 57.1768C157.953 60.3876 156.343 63.3126 154.076 65.2686C151.129 67.8109 146.956 68.7483 142.928 66.2852C133.749 60.6721 131.25 49.8632 131.25 43.7812V31.3965C131.25 30.0618 132.332 28.9795 133.667 28.9795C135.002 28.9797 136.083 30.0619 136.083 31.3965V43.7812C136.083 49.0518 138.319 57.8011 145.448 62.1611C147.398 63.3531 149.292 63.0112 150.918 61.6084C152.373 60.3531 153.497 58.2883 153.813 55.9648C153.798 55.895 153.784 55.8196 153.766 55.7402C153.639 55.1908 153.446 54.435 153.183 53.6123C152.619 51.854 151.861 50.2176 151.025 49.3818C150.19 48.5461 148.552 47.7884 146.794 47.2246C145.971 46.9609 145.216 46.768 144.667 46.6416C144.394 46.5787 144.175 46.5333 144.027 46.5039C143.954 46.4892 143.898 46.4782 143.863 46.4717C143.846 46.4684 143.833 46.4661 143.826 46.4648C143.825 46.4645 143.824 46.4641 143.823 46.4639C142.667 46.2613 141.823 45.2577 141.823 44.084C141.823 42.9102 142.667 41.9057 143.823 41.7031C143.824 41.703 143.825 41.7033 143.826 41.7031C143.833 41.7019 143.846 41.6995 143.863 41.6963C143.898 41.6898 143.954 41.6787 144.027 41.6641C144.175 41.6347 144.394 41.5892 144.667 41.5264C145.216 41.4 145.971 41.207 146.794 40.9434C148.552 40.3796 150.19 39.6218 151.025 38.7861C151.861 37.9504 152.619 36.314 153.183 34.5557C153.446 33.733 153.639 32.9772 153.766 32.4277C153.828 32.1545 153.874 31.9352 153.903 31.7881C153.904 31.7828 153.905 31.7776 153.906 31.7725V5.41699C153.906 4.08232 154.989 3 156.323 3ZM156.323 39.8545C156.273 39.8545 156.223 39.8497 156.174 39.8467C155.693 40.7048 155.122 41.5256 154.443 42.2041C153.694 42.9533 152.772 43.5738 151.817 44.084C152.772 44.5941 153.694 45.2147 154.443 45.9639C155.193 46.7131 155.813 47.6348 156.323 48.5898C156.833 47.6349 157.453 46.7131 158.202 45.9639C158.951 45.2145 159.874 44.5942 160.829 44.084C159.874 43.5738 158.952 42.9535 158.202 42.2041C157.524 41.5256 156.953 40.7047 156.472 39.8467C156.423 39.8497 156.373 39.8545 156.323 39.8545ZM144.542 8.4375C145.877 8.43763 146.958 9.5199 146.958 10.8545V35.0205C146.958 36.3551 145.877 37.4374 144.542 37.4375C143.207 37.4375 142.125 36.3552 142.125 35.0205V10.8545C142.125 9.51981 143.207 8.4375 144.542 8.4375Z" fill="url(#paint0_linear_307_2262)"/>
<circle cx="80" cy="36" r="2" fill="#E2E4E8"/>
<circle cx="96" cy="36" r="2" fill="#3D84FF" fill-opacity="0.33"/>
<circle cx="112" cy="36" r="2" fill="#3D84FF" fill-opacity="0.66"/>
<defs>
<linearGradient id="paint0_linear_307_2262" x1="179.68" y1="14.7039" x2="143.693" y2="68.3343" gradientUnits="userSpaceOnUse">
<stop stop-color="#0C58FF"/>
<stop offset="1" stop-color="#3FB6FF"/>
</linearGradient>
</defs>
</svg>
