<svg width="20" height="20" viewBox="0 0 20 20" fill="none" xmlns="http://www.w3.org/2000/svg">
<path d="M6.47654 2.03169L7.37404 1.74502C8.21404 1.47669 9.11237 1.91086 9.47237 2.75919L10.189 4.44919C10.5015 5.18502 10.3282 6.05086 9.7607 6.58919L8.1832 8.08752C8.28043 8.98419 8.58154 9.86669 9.08654 10.735C9.56676 11.5749 10.2102 12.3102 10.979 12.8975L12.8757 12.2642C13.594 12.025 14.3765 12.3009 14.8174 12.9484L15.844 14.4567C16.3574 15.21 16.2649 16.2484 15.629 16.8867L14.9474 17.5709C14.269 18.2517 13.3007 18.4992 12.404 18.2192C10.2885 17.5592 8.3432 15.6 6.5682 12.3417C4.79098 9.0778 4.16376 6.30891 4.68654 4.03502C4.90654 3.07836 5.5882 2.31586 6.4782 2.03169" fill="#A9ACB2"/>
</svg>
