<svg width="20" height="20" viewBox="0 0 20 20" fill="none" xmlns="http://www.w3.org/2000/svg">
<path d="M9.99984 1.66602C14.6023 1.66602 18.3332 5.39685 18.3332 9.99935C18.3332 14.6018 14.6023 18.3327 9.99984 18.3327C5.39734 18.3327 1.6665 14.6018 1.6665 9.99935C1.6665 5.39685 5.39734 1.66602 9.99984 1.66602ZM9.99984 4.99935C9.77882 4.99935 9.56686 5.08715 9.41058 5.24343C9.2543 5.39971 9.1665 5.61167 9.1665 5.83268V9.99935C9.16655 10.2203 9.25438 10.4323 9.41067 10.5885L11.9107 13.0885C12.0678 13.2403 12.2783 13.3243 12.4968 13.3224C12.7153 13.3205 12.9243 13.2329 13.0789 13.0784C13.2334 12.9239 13.321 12.7148 13.3229 12.4963C13.3248 12.2779 13.2408 12.0674 13.089 11.9102L10.8332 9.65435V5.83268C10.8332 5.61167 10.7454 5.39971 10.5891 5.24343C10.4328 5.08715 10.2209 4.99935 9.99984 4.99935Z" fill="#A9ACB2"/>
</svg>
